<svg width="96" height="96" viewBox="0 0 96 96" fill="none" xmlns="http://www.w3.org/2000/svg">
<g clip-path="url(#clip0)">
<path d="M77.9079 83.6129L74.3234 72.8578C73.0708 69.103 69.8749 66.3314 65.9792 65.6222L55.6313 63.7394V62.9373C57.4321 61.8921 58.999 60.4939 60.247 58.8387H63.3732C65.9342 58.8387 68.0184 56.7546 68.0184 54.1936V35.6129C68.0184 24.5141 58.9882 15.4839 47.8893 15.4839C36.7905 15.4839 27.7603 24.5141 27.7603 35.6129V46.4516C27.7603 49.4369 29.8831 51.9345 32.6981 52.5167C33.5668 56.9667 36.3477 60.7324 40.1474 62.9373V63.7394L29.798 65.6222C25.9038 66.3314 22.7064 69.103 21.4553 72.8578L20.8359 74.7174L15.5621 69.4436C14.9582 68.8398 14.9582 67.8565 15.5621 67.2527L21.6782 61.1381L10.1985 49.6583L3.2865 56.5703C1.23953 58.6173 0.112305 61.3394 0.112305 64.2349C0.112305 67.1303 1.23953 69.8508 3.2865 71.8978L24.213 92.8243C26.2599 94.8712 28.982 96 31.8775 96C34.773 96 37.4935 94.8712 39.4924 92.8707L47.0346 85.9603L44.6826 83.6129H77.9079ZM64.9216 54.1936C64.9216 55.0483 64.2264 55.742 63.3732 55.742H62.071C62.5201 54.7185 62.8607 53.6392 63.0806 52.5167C63.7433 52.3789 64.3533 52.1156 64.9216 51.7843V54.1936ZM63.3732 49.118V43.7853C64.2945 44.3226 64.9216 45.3105 64.9216 46.4516C64.9216 47.5928 64.2945 48.5807 63.3732 49.118ZM32.4055 49.118C31.4842 48.5807 30.8571 47.5928 30.8571 46.4516C30.8571 45.3105 31.4842 44.3226 32.4055 43.7853V49.118ZM32.4055 38.7097V40.478C31.8542 40.622 31.3371 40.8387 30.8571 41.119V35.6129C30.8571 26.222 38.4984 18.5807 47.8893 18.5807C57.2803 18.5807 64.9216 26.222 64.9216 35.6129V41.119C64.4416 40.8387 63.9244 40.6204 63.3732 40.478V38.7097H61.8248C57.2463 38.7097 52.9417 36.926 49.7025 33.6883L47.8893 31.8751L46.0762 33.6883C42.837 36.926 38.5324 38.7097 33.9539 38.7097H32.4055ZM35.5022 49.5484V41.7476C40.1521 41.3977 44.4875 39.4792 47.8893 36.2447C51.2911 39.4792 55.6266 41.3992 60.2764 41.7476V49.5484C60.2764 51.806 59.6602 53.9179 58.6011 55.742H47.8893V58.8387H56.0555C53.8723 60.7603 51.0186 61.9355 47.8893 61.9355C41.0594 61.9355 35.5022 56.3783 35.5022 49.5484ZM52.5345 64.3185V64.3912L47.8893 69.0364L43.2442 64.3912V64.3185C44.7121 64.7799 46.2713 65.0323 47.8893 65.0323C49.5074 65.0323 51.0666 64.7799 52.5345 64.3185ZM24.391 73.8364C25.2844 71.1546 27.5683 69.1742 30.3508 68.6663L41.174 66.6999L47.8893 73.4152L54.6032 66.7014L65.4248 68.6679C68.2073 69.1758 70.4912 71.1546 71.3846 73.838L73.6127 80.5161H41.5859L35.5549 74.4852L28.8535 80.5471C28.2697 81.1339 27.2493 81.1339 26.6641 80.5471L23.2824 77.1654L24.391 73.8364ZM10.1969 54.0372L17.2979 61.1381L15.6163 62.8196L8.5154 55.7187L10.1969 54.0372ZM37.3479 90.6379C35.8862 92.0965 33.9415 92.9032 31.8744 92.9032C29.8073 92.9032 27.8625 92.0965 26.3993 90.6348L5.47282 69.7099C4.01114 68.2483 3.20598 66.3035 3.20598 64.2364C3.20598 62.1678 4.01114 60.223 5.47282 58.7613L6.32443 57.9097L13.4253 65.0106L13.3696 65.0663C11.5595 66.8779 11.5595 69.8245 13.3696 71.6361L24.4731 82.7396C25.351 83.616 26.517 84.1007 27.7588 84.1007C29.0006 84.1007 30.1665 83.6176 30.9871 82.7938L31.1033 82.6901L38.2367 89.8235L37.3479 90.6379ZM40.5221 87.727L33.4042 80.609L35.4496 78.7603L42.5551 85.8658L40.5221 87.727Z" fill="#5351A2"/>
<path d="M91.2441 0H69.5667C67.0056 0 64.9215 2.08413 64.9215 4.64516V17.0323C64.9215 19.5933 67.0056 21.6774 69.5667 21.6774H73.7024L72.1014 31.0157L87.0433 21.6774H91.2441C93.8051 21.6774 95.8892 19.5933 95.8892 17.0323V4.64516C95.8892 2.08413 93.8051 0 91.2441 0ZM92.7925 17.0323C92.7925 17.8854 92.0972 18.5806 91.2441 18.5806H86.1545L76.3207 24.7262L77.3752 18.5806H69.5667C68.7135 18.5806 68.0183 17.8854 68.0183 17.0323V4.64516C68.0183 3.792 68.7135 3.09677 69.5667 3.09677H91.2441C92.0972 3.09677 92.7925 3.792 92.7925 4.64516V17.0323Z" fill="#5351A2"/>
<path d="M89.6958 6.19336H71.1151V9.29013H89.6958V6.19336Z" fill="#5351A2"/>
<path d="M83.5022 12.3872H71.1151V15.484H83.5022V12.3872Z" fill="#5351A2"/>
<path d="M89.6958 12.3872H86.599V15.484H89.6958V12.3872Z" fill="#5351A2"/>
<path d="M47.8893 4.64502C27.6581 4.64502 10.231 18.6393 5.70039 38.1599L2.7662 33.2685L0.110718 34.8618L5.5533 43.9307L14.6222 38.4881L13.0289 35.8326L8.83278 38.3503C13.2209 20.4928 29.2792 7.74179 47.8893 7.74179C51.9569 7.74179 55.9703 8.34566 59.8181 9.53792L60.7347 6.5805C56.5897 5.29534 52.2681 4.64502 47.8893 4.64502Z" fill="#5351A2"/>
<path d="M95.1367 34.2844L86.0678 28.8418L80.6268 37.9123L83.2823 39.5055L85.992 34.9889C87.418 39.1618 88.1473 43.5267 88.1473 48C88.1473 57.2083 84.9576 66.2106 79.1682 73.3471L81.5729 75.2981C87.8098 67.6119 91.2441 57.9159 91.2441 48C91.2441 43.2635 90.4807 38.6384 88.9927 34.2101L93.5434 36.9399L95.1367 34.2844Z" fill="#5351A2"/>
</g>
<defs>
<clipPath id="clip0">
<rect width="96" height="96" fill="white"/>
</clipPath>
</defs>
</svg>
