<?xml version="1.0" encoding="UTF-8" standalone="no"?>
<svg
   className="fill-current text-purple-800"
   id="master-artboard"
   viewBox="0 0 1400 980"
   version="1.1"
   x="0px"
   y="0px"
   style="enable-background:new 0 0 1400 980;"
   width="1400px"
   height="980px"
   sodipodi:docname="car.svg"
   inkscape:version="1.1 (c68e22c387, 2021-05-23)"
   xmlns:inkscape="http://www.inkscape.org/namespaces/inkscape"
   xmlns:sodipodi="http://sodipodi.sourceforge.net/DTD/sodipodi-0.dtd"
   xmlns="http://www.w3.org/2000/svg"
   xmlns:svg="http://www.w3.org/2000/svg">
  <sodipodi:namedview
     id="namedview25"
     pagecolor="#ffffff"
     bordercolor="#666666"
     borderopacity="1.0"
     inkscape:pageshadow="2"
     inkscape:pageopacity="0.0"
     inkscape:pagecheckerboard="0"
     showgrid="false"
     inkscape:zoom="0.72142857"
     inkscape:cx="413.76238"
     inkscape:cy="490.69307"
     inkscape:window-width="1920"
     inkscape:window-height="1020"
     inkscape:window-x="0"
     inkscape:window-y="0"
     inkscape:window-maximized="1"
     inkscape:current-layer="g22" />
  <rect
     id="ee-background"
     x="0"
     y="0"
     width="1400"
     height="980"
     style="fill: white; fill-opacity: 0; pointer-events: none;" />
 
  <g
     transform="matrix(0.9999999999999999, 0, 0, 0.9999999999999999, 1.8189894035458565e-12, 4.547473508864641e-13)"
     id="g8">
    <path
       class="st13"
       d="M448.4,599.9"
       style="fill: rgb(223, 243, 251);"
       id="path6" />
  </g>
  <g
     transform="matrix(90.66547393798828, 0, 0, 90.66547393798828, -83.06154577158406, 53.43513650892578)"
     id="g22">
    <g
       id="layer1"
       style="fill-opacity:1;fill:#5351a2">
      <path
         d="m 9.3016348,5.9004433 -0.010686,0.00356 C 9.2615238,5.9159283 8.5615246,6.2058393 7.8878527,6.860618 l -0.1194026,0.11615 0.1661724,0.01192 c 0.00619,3.1e-4 0.1590486,0.01099 0.4404421,0.01099 v 0 c 0.5229863,0 1.3773882,-0.03577 2.4777194,-0.2059734 l 0.05018,-0.00759 0.207676,-0.9203753 -0.08626,-0.00635 c -0.777277,-0.05823 -1.3651531,-0.044292 -1.7227413,0.04104 z M 10.779996,6.6541816 C 9.7129619,6.8161726 8.8848874,6.850708 8.3752197,6.850708 8.2730074,6.850708 8.1876756,6.849158 8.120773,6.847458 8.7029185,6.3238523 9.2825861,6.0697154 9.3420551,6.044472 9.6706831,5.967038 10.212718,5.952636 10.926965,6.001884 Z"
         id="path2"
         style="stroke-width:1;fill-opacity:1;fill:#5351a2" />
      <path
         d="m 11.410151,5.8923902 -0.06535,-0.00635 -0.193894,0.8595125 0.110266,-0.019513 C 11.644774,6.658363 12.031632,6.5782967 12.411212,6.488164 l 0.02695,-0.0065 0.301061,-0.4187651 -0.119402,-0.019204 c -0.0051,-6.195e-4 -0.548694,-0.0875 -1.209667,-0.1513052 z m 0.939578,0.4571678 c -0.331725,0.078363 -0.668716,0.1488273 -1.003848,0.2098449 l 0.115531,-0.5121456 c 0.445552,0.044447 0.829158,0.098186 1.015308,0.1255973 z"
         id="path4"
         style="stroke-width:1;fill-opacity:1;fill:#5351a2" />
      <path
         d="m 2.7879237,7.412256 -0.088584,0.03051 C 2.2471277,7.599027 1.7932122,7.838452 1.7741635,7.848518 L 1.509031,7.988673 h 1.0837601 l 0.020752,-0.01688 C 2.825866,7.795709 2.7989191,7.517103 2.797835,7.505488 Z M 2.5373487,7.839844 H 2.1284995 C 2.2728357,7.772164 2.4568178,7.690707 2.6446716,7.620707 2.6344506,7.686367 2.6071936,7.772322 2.5373487,7.839844 Z"
         id="path12"
         style="stroke-width:1;fill-opacity:1;fill:#5351a2" />
      <path
         d="M 15.585833,6.6489161 C 15.539683,6.520841 15.49601,6.3994252 15.465811,6.2773899 L 15.574218,5.990576 15.492608,5.970443 C 15.482708,5.967963 15.246215,5.91051 14.9721,5.91051 c -0.09633,0 -0.186615,0.00728 -0.268075,0.021681 l -0.04661,0.010995 -0.01301,0.044911 c -3.1e-4,0.00108 -0.03996,0.1277654 -0.334668,0.1277654 -0.08053,0 -0.172987,-0.00945 -0.274889,-0.028341 C 13.903511,6.0632087 13.720613,6.0204653 13.489087,5.966107 12.621521,5.7629213 11.133558,5.4141606 9.7513689,5.4589172 8.3385162,5.5044481 7.5490036,5.9580539 6.9148227,6.3223013 6.7666149,6.4076331 6.6259956,6.4883189 6.4870798,6.5584737 6.2707304,6.5589383 3.9502015,6.5762837 2.9184767,7.033761 l -0.1844468,0.08161 c -0.8399992,0.371216 -1.3947332,0.616526 -1.4811491,0.88615 -0.022765,0.07155 -0.014248,0.142168 0.025708,0.209999 0.1672564,0.282013 -0.0175,0.493717 -0.2017919,0.621172 -0.074491,0.05157 -0.067522,0.114757 -0.061173,0.139226 0.071704,0.27427 1.4616359,0.44834 1.475419,0.449424 l 0.0048,7.75e-4 0.2507299,-0.0084 -0.041969,-0.09989 C 2.6375468,9.154159 2.6037853,8.985044 2.6037853,8.811128 c 0,-0.715951 0.5824553,-1.298251 1.2982511,-1.298251 0.7157958,0 1.2984059,0.5823 1.2984059,1.298251 0,0.146349 -0.025708,0.293163 -0.076504,0.435641 l -0.036239,0.101748 0.1079424,-0.0025 c 0.5465261,-0.01162 0.9871231,-0.0175 1.3094015,-0.0175 0.4870571,0 1.1289813,-0.0067 1.8086931,-0.01378 0.8215701,-0.0087 1.7524767,-0.01858 2.6084267,-0.01858 0.312832,0 0.617146,0.0014 0.905973,0.0043 l 0.192655,0.002 -0.03113,-0.09819 c -0.04042,-0.127765 -0.06102,-0.259867 -0.06102,-0.393208 0,-0.71595 0.58261,-1.298251 1.298405,-1.298251 0.715796,0 1.298406,0.582301 1.298406,1.298251 0,0.06133 -0.0053,0.124513 -0.01688,0.199314 l -0.01595,0.102058 0.101903,-0.01719 c 0.07015,-0.01208 0.13938,-0.0237 0.20907,-0.03469 0.696438,-0.109182 0.823274,-0.515398 0.9498,-1.171415 0.09695,-0.505487 -0.04336,-0.895907 -0.167566,-1.2403311 z M 6.9888492,6.4517703 C 7.3724551,6.2315492 7.814291,5.9781866 8.4210603,5.8061292 8.4673656,5.8267266 8.5657062,5.8679212 8.686038,5.9026115 8.2671224,6.0978989 7.3239817,6.5515047 6.9470351,6.850708 H 6.4234294 C 6.4520794,6.803628 6.4935844,6.7467921 6.5493363,6.6938276 6.6932079,6.6211946 6.8370794,6.5389604 6.9888492,6.4517703 Z M 15.606431,7.861371 c -0.130244,0.675995 -0.241593,0.960486 -0.826681,1.052322 -0.03732,0.006 -0.07449,0.01192 -0.111815,0.01827 0.0039,-0.04212 0.0059,-0.08208 0.0059,-0.120332 0,-0.79803 -0.649203,-1.447543 -1.447388,-1.447543 -0.798185,0 -1.447543,0.649358 -1.447543,1.447543 0,0.114757 0.01363,0.228894 0.04073,0.340243 -0.286504,-0.0029 -0.587876,-0.0042 -0.898075,-0.0042 -0.85657,0 -1.7880954,0.0098 -2.6101301,0.01827 -0.6790923,0.0073 -1.3207068,0.01394 -1.8069895,0.01394 -0.3024555,0 -0.708672,0.0053 -1.2084282,0.01533 0.035155,-0.125907 0.052965,-0.254911 0.052965,-0.383606 0,-0.79803 -0.6493578,-1.447543 -1.447543,-1.447543 -0.7981851,0 -1.447543,0.649358 -1.447543,1.447543 0,0.15812 0.025398,0.312522 0.074956,0.460575 l -0.029115,9.29e-4 C 2.0468997,9.229592 1.303073,9.055214 1.1731394,8.947117 1.4924754,8.720237 1.5774975,8.425215 1.4063693,8.136078 1.3882503,8.105108 1.3842233,8.077848 1.3941353,8.047648 1.4601083,7.84152 2.0486038,7.581653 2.7935146,7.252251 L 2.9779614,7.170641 C 3.8675024,6.7762169 5.765399,6.7179868 6.3390268,6.7094691 6.2671684,6.8088938 6.2341817,6.894381 6.2323233,6.899646 L 6.1954653,7 H 7 L 7.020752,6.98281 C 7.4642913,6.6162391 8.9364581,5.9518592 8.9513254,5.9451999 L 9.1915243,5.8371027 8.9302634,5.8033416 C 8.8396662,5.7915717 8.7493786,5.7677222 8.6722548,5.7427886 8.9877191,5.67124 9.3442232,5.6218374 9.7555503,5.6085188 11.119,5.5650008 12.5938,5.9103548 13.454397,6.1118369 c 0.233539,0.054823 0.417986,0.098031 0.55272,0.1226548 0.11073,0.020442 0.212633,0.030973 0.301991,0.030973 0.304469,-1.549e-4 0.418297,-0.1201769 0.458872,-0.1920352 0.06288,-0.00883 0.131172,-0.013319 0.203495,-0.013319 0.162301,0 0.312987,0.022301 0.40219,0.038562 l -0.06411,0.1695795 0.0051,0.022146 c 0.03268,0.1376769 0.08022,0.2696237 0.130553,0.4094687 0.123739,0.3417913 0.251039,0.6958183 0.161217,1.1615033 z"
         id="path8"
         style="stroke-width:1;fill-opacity:1;fill:#5351a2" />
      <path
         d="M 9.4778736,8.584291 C 9.3936256,8.577591 9.309533,8.568651 9.2251304,8.564781 L 8.9723873,8.549291 c -0.084403,-0.0059 -0.1684954,-0.0084 -0.252898,-0.01224 L 8.4667461,8.526061 7.9612599,8.512121 c -0.084248,-0.0028 -0.1684955,-0.002 -0.252898,-0.0031 l -0.2527432,-0.0023 c -0.1683405,-0.0028 -0.336836,3.1e-4 -0.5054863,0.0017 -0.1684954,6.2e-4 -0.3369908,0.0026 -0.5056411,0.0084 L 6.191903,8.523428 c -0.052345,9.29e-4 -0.1043804,0.0036 -0.1564158,0.0059 -0.00186,-0.0223 -0.0031,-0.04445 -0.00805,-0.06659 l -0.016106,-0.08734 c -0.00418,-0.02927 -0.013473,-0.05792 -0.021991,-0.08626 -0.00883,-0.02834 -0.016416,-0.05684 -0.026172,-0.08487 l -0.033142,-0.08208 c -0.00991,-0.02804 -0.024472,-0.05359 -0.037636,-0.07992 -0.014093,-0.02602 -0.025243,-0.05328 -0.042588,-0.07728 l -0.048474,-0.07325 -0.053584,-0.06907 c -0.018119,-0.02261 -0.038717,-0.04336 -0.057765,-0.06504 -0.018739,-0.02184 -0.041195,-0.04058 -0.061327,-0.06086 -0.020288,-0.02029 -0.043518,-0.03763 -0.064889,-0.05637 -0.022146,-0.01812 -0.045221,-0.035 -0.068142,-0.05157 -0.048164,-0.03113 -0.097102,-0.05993 -0.1494468,-0.08239 l -0.00697,0.01316 c 0.094314,0.05575 0.1790264,0.129004 0.2532078,0.210464 0.01781,0.02106 0.037478,0.04057 0.053584,0.06303 0.016416,0.02215 0.034226,0.04321 0.049558,0.06613 l 0.045066,0.06907 0.039801,0.07263 c 0.014093,0.02385 0.02354,0.04987 0.035,0.0748 0.010996,0.02524 0.02292,0.05018 0.030819,0.07681 l 0.026018,0.07821 c 0.00759,0.02664 0.013009,0.05358 0.019668,0.08069 0.00635,0.02664 0.013009,0.05358 0.015796,0.08069 l 0.011305,0.08208 c 0.00496,0.0271 0.00341,0.05482 0.00542,0.08254 l 0.00341,0.08254 6.194e-4,0.01084 0.010531,3.1e-4 1.0109726,0.0028 1.0109725,-0.0011 2.0221,-0.0056 v -0.01472 c -0.084405,-0.0093 -0.1686531,-0.0206 -0.2527459,-0.02664 z"
         id="path10"
         style="stroke-width:1;fill-opacity:1;fill:#5351a2" />
      <path
         d="m 15.271453,7.136128 c -0.157035,0 -0.212942,0.277832 -0.212942,0.515708 0,0.237721 0.05591,0.515552 0.212942,0.515552 0.1575,0 0.213252,-0.277831 0.213252,-0.515552 0,-0.237876 -0.05575,-0.515708 -0.213252,-0.515708 z m 0,0.870044 c -0.02695,-0.04398 -0.06381,-0.166947 -0.06381,-0.354182 0,-0.187544 0.03686,-0.310663 0.06381,-0.354335 0.0271,0.04367 0.06427,0.166791 0.06427,0.354335 0,0.187235 -0.03717,0.310044 -0.06427,0.354182 z"
         id="path16"
         style="stroke-width:1;fill-opacity:1;fill:#5351a2" />
      <path
         d="m 3.9015732,7.702787 c -0.6121897,0 -1.1086937,0.496349 -1.1086937,1.108848 0,0.6125 0.496504,1.108849 1.1086937,1.108849 0.6124994,0 1.1090034,-0.496349 1.1090034,-1.108849 0,-0.612499 -0.496504,-1.108848 -1.1090034,-1.108848 z M 4.5184089,8.369335 3.9762191,8.682321 V 8.055884 C 4.2000021,8.07772 4.3943604,8.196348 4.5184089,8.369335 Z M 3.8270821,8.056039 V 8.682476 L 3.2847374,8.36949 C 3.4089409,8.196348 3.6036088,8.07772 3.8270821,8.056039 Z M 3.2102464,8.498494 3.7524361,8.811481 3.2102464,9.124467 c -0.043208,-0.0954 -0.067832,-0.201327 -0.067832,-0.312986 0,-0.11166 0.024624,-0.217434 0.067832,-0.312987 z M 3.2847374,9.253781 3.8270821,8.94064 V 9.567232 C 3.6036088,9.545551 3.4089409,9.426768 3.2847374,9.253781 Z M 3.9762191,9.567232 V 8.94064 L 4.5184089,9.253781 C 4.3943604,9.426768 4.2000021,9.545551 3.9762191,9.567232 Z M 4.5932097,9.124622 4.0510199,8.811635 4.5932097,8.498649 c 0.043208,0.0954 0.067832,0.201327 0.067832,0.312986 0,0.11166 -0.024624,0.217589 -0.067832,0.312987 z"
         id="path14"
         style="stroke-width:1;fill-opacity:1;fill:#5351a2" />
      <path
         d="m 13.226432,7.702787 c -0.612189,0 -1.108693,0.496349 -1.108693,1.108848 0,0.6125 0.496504,1.108849 1.108693,1.108849 0.6125,0 1.108849,-0.496349 1.108849,-1.108849 0,-0.612499 -0.496349,-1.108848 -1.108849,-1.108848 z m 0.616836,0.666548 -0.54219,0.312986 V 8.055884 c 0.223783,0.02184 0.417987,0.140464 0.54219,0.313451 z M 13.151941,8.056039 V 8.682476 L 12.609597,8.36949 C 12.7338,8.196348 12.928313,8.07772 13.151941,8.056039 Z M 12.53495,8.498494 13.077295,8.811481 12.53495,9.124467 c -0.04321,-0.0954 -0.06783,-0.201327 -0.06783,-0.312986 0,-0.11166 0.02462,-0.217434 0.06783,-0.312987 z m 0.07465,0.755287 0.542345,-0.313141 V 9.567232 C 12.928313,9.545551 12.7338,9.426768 12.609596,9.253781 Z m 0.691482,0.313451 V 8.94064 l 0.54219,0.313141 c -0.124203,0.172987 -0.318407,0.29177 -0.54219,0.313451 z m 0.616991,-0.44261 -0.542345,-0.312987 0.542345,-0.312986 c 0.04321,0.0954 0.06783,0.201327 0.06783,0.312986 0,0.11166 -0.02462,0.217589 -0.06783,0.312987 z"
         id="path19"
         style="stroke-width:1;fill-opacity:1;fill:#5351a2" />
    </g>
  </g>
</svg>
