<?xml version="1.0" encoding="UTF-8" standalone="no"?>
<!-- Created with Inkscape (http://www.inkscape.org/) -->

<svg
   width="16.0px"
   height="16.0px"
   viewBox="0 0 16.0 16.0"
   version="1.1"
   id="SVGRoot"
   sodipodi:docname="chemical_jar.svg"
   inkscape:version="1.1 (c68e22c387, 2021-05-23)"
   xmlns:inkscape="http://www.inkscape.org/namespaces/inkscape"
   xmlns:sodipodi="http://sodipodi.sourceforge.net/DTD/sodipodi-0.dtd"
   xmlns="http://www.w3.org/2000/svg"
   xmlns:svg="http://www.w3.org/2000/svg">
  <sodipodi:namedview
     id="namedview1038"
     pagecolor="#ffffff"
     bordercolor="#666666"
     borderopacity="1.0"
     inkscape:pageshadow="2"
     inkscape:pageopacity="0.0"
     inkscape:pagecheckerboard="0"
     inkscape:document-units="px"
     showgrid="true"
     inkscape:zoom="28.588131"
     inkscape:cx="6.628625"
     inkscape:cy="9.0597038"
     inkscape:window-width="1920"
     inkscape:window-height="1020"
     inkscape:window-x="0"
     inkscape:window-y="0"
     inkscape:window-maximized="1"
     inkscape:current-layer="layer1">
    <inkscape:grid
       type="xygrid"
       id="grid1101" />
  </sodipodi:namedview>
  <defs
     id="defs1033" />
  <g
     inkscape:label="Layer 1"
     inkscape:groupmode="layer"
     id="layer1">
    <path
       d="M 9.0956441,5.6819917 V 2.9962913 c 0.2163651,-0.019478 0.3872933,-0.1990555 0.3872933,-0.4197477 0,-0.2335191 -0.1907099,-0.4234564 -0.4250016,-0.4234564 H 6.8058899 c -0.2342917,0 -0.4250016,0.1899373 -0.4250016,0.4234564 0,0.2206922 0.170774,0.4002746 0.3872921,0.4197477 V 5.6819917 L 5.7868135,7.7005185 C 5.7535891,7.6912373 5.7202016,7.6824326 5.6865131,7.6745561 V 4.3023607 c 0.2163638,-0.019315 0.3872921,-0.1989012 0.3872921,-0.4195921 0,-0.2335191 -0.1907099,-0.4234564 -0.4250016,-0.4234564 H 3.3967589 c -0.2342917,0 -0.4250016,0.1899373 -0.4250016,0.4234564 0,0.2206909 0.1707728,0.400119 0.3871378,0.4195921 v 4.1064438 c -0.3862109,0.427474 -0.6237485,0.991722 -0.6237485,1.6119155 0,0.620194 0.2375376,1.18444 0.6237485,1.612069 v 0.797768 H 3.4870129 5.144984 5.6865131 12.376965 Z M 6.612708,2.5765436 c 0,-0.105706 0.086704,-0.1916367 0.1931819,-0.1916367 h 2.2520459 c 0.1064837,0 0.193182,0.086077 0.193182,0.1916367 0,0.1055556 -0.086704,0.1916368 -0.193182,0.1916368 H 6.8058899 c -0.1066342,0 -0.1931819,-0.085927 -0.1931819,-0.1916368 z M 8.8638257,3 V 5.5926646 H 7 V 3 Z m -5.66025,0.8826118 c 0,-0.105706 0.086705,-0.1916367 0.1931832,-0.1916367 h 2.2518904 c 0.1064837,0 0.193182,0.086077 0.193182,0.1916367 0,0.1055556 -0.086705,0.1914838 -0.193182,0.1914838 H 3.3967589 C 3.2901247,4.0742498 3.2035757,3.9883191 3.2035757,3.8826118 Z m 2.2509635,0.4234564 v 3.3270683 c -0.1016925,-0.013132 -0.2044637,-0.02225 -0.3097107,-0.02225 -0.5920656,0 -1.1342131,0.2155912 -1.554115,0.571047 V 4.3060732 Z M 3.5996774,12.198582 h -0.0089 v -0.339383 c 0.040649,0.03447 0.083456,0.06645 0.126264,0.09813 z m 0.2577834,0 0.054245,-0.11159 c 0.067691,0.04065 0.1372373,0.07774 0.2087921,0.11159 z m 1.7129876,-0.04234 c -0.038179,0.0078 -0.077122,0.01217 -0.1159155,0.01777 -0.1013789,0.01452 -0.2043094,0.02457 -0.3097107,0.02457 -0.4146467,0 -0.8013205,-0.118688 -1.1314312,-0.320529 C 3.980167,11.857663 3.946629,11.838033 3.914633,11.816083 3.882174,11.793673 3.851269,11.769413 3.820052,11.745303 3.73923,11.683183 3.6621062,11.616412 3.5907057,11.54362 3.5505207,11.50251 3.5117397,11.46016 3.4748028,11.416119 3.4338518,11.367129 3.3955228,11.31597 3.3588873,11.263583 3.1126955,10.910753 2.9669584,10.482661 2.9669584,10.020723 c 0,-0.4619375 0.1455816,-0.8900315 0.3919289,-1.2427055 0.036623,-0.05255 0.074952,-0.103699 0.1159155,-0.152536 0.036937,-0.04405 0.07573,-0.08654 0.1159029,-0.127501 0.3954834,-0.40352 0.9458222,-0.6549662 1.5541149,-0.6549662 0.1054051,0 0.2083293,0.010034 0.3097108,0.02457 0.038793,0.00552 0.077737,0.010159 0.1159154,0.017772 0.038329,0.00753 0.075417,0.018086 0.1129681,0.027819 9.268e-4,1.543e-4 0.00201,4.641e-4 0.00288,7.726e-4 0.03725,0.00953 0.074802,0.017772 0.1112748,0.029211 0.03725,0.01179 0.073096,0.026426 0.1094186,0.040185 0.8255859,0.3098646 1.4157965,1.1048496 1.4157965,2.0375361 0,1.013821 -0.6971571,1.865368 -1.6364874,2.107079 -0.03848,0.0095 -0.076658,0.02041 -0.1159155,0.02828 z m 1.9842175,-2.135673 c 0,-1.0240215 -0.6432204,-1.8984435 -1.5457694,-2.2467907 L 6.9565725,5.824641 H 8.9072533 L 12.00621,12.198584 H 6.1693144 C 6.9865547,11.812528 7.5546659,10.98277 7.5546659,10.020566 Z"
       id="path2"
       style="stroke-width:1;fill:#5351a2;fill-opacity:1" />
    <polygon
       points="35.078,56.067 34.994,56.024 34.627,55.837 34.41,55.726 32.325,59.799 28.942,66.406 29.112,66.406 29.946,66.406 30.78,66.406 32.432,66.406 33.851,66.406 31.012,71.955 29.501,74.906 30.169,75.248 30.836,75.59 34.627,68.184 35.377,66.718 36.127,65.253 36.304,64.906 36.127,64.906 35.377,64.906 34.627,64.906 32.815,64.906 31.51,64.906 31.396,64.906 33.67,60.463 34.235,59.358 34.627,58.594 35.377,57.128 35.745,56.409 35.662,56.366 35.377,56.221 "
       id="polygon4"
       transform="matrix(0.15454606,0,0,0.15454606,0.10307432,-0.1263121)"
       style="stroke-width:6.47056;fill:#5351a2;fill-opacity:1" />
    <path
       d="m 4.4659078,13.183967 c -0.2016819,0 -0.3658097,0.164128 -0.3658097,0.365811 0,0.201682 0.1641278,0.36581 0.3658097,0.36581 0.2016831,0 0.365811,-0.164128 0.365811,-0.36581 0,-0.201683 -0.1639736,-0.365811 -0.365811,-0.365811 z m 0,0.615712 c -0.1378544,0 -0.2499005,-0.112203 -0.2499005,-0.249901 0,-0.137701 0.1122029,-0.249902 0.2499005,-0.249902 0.1377013,0 0.2499018,0.112203 0.2499018,0.249902 0,0.1377 -0.1120525,0.249901 -0.2499018,0.249901 z"
       id="path6"
       style="stroke-width:1;fill:#5351a2;fill-opacity:1" />
    <path
       d="M 1.4188778,4.9755621 1.7508435,5.1500449 1.68748,4.7803709 1.9560811,4.518569 1.5850162,4.4644743 1.418879,4.128337 1.2528974,4.4644743 0.8818325,4.518569 l 0.268601,0.2618019 -0.063363,0.369674 z m -0.2880729,-0.3761646 0.1990543,-0.02906 0.089025,-0.180355 0.089012,0.180355 0.1990555,0.02906 -0.1440364,0.140482 0.034002,0.1981274 -0.1780372,-0.093503 -0.1780372,0.093653 0.034002,-0.1981287 z"
       id="path8"
       style="stroke-width:1;fill:#5351a2;fill-opacity:1" />
    <path
       d="M 4.5943367,1.1239657 4.4757999,0.8839547 4.3571126,1.1239657 4.092066,1.1626084 4.2838583,1.3496083 4.2385808,1.6137279 4.4756544,1.4890078 4.712728,1.6137279 4.6676009,1.3496083 4.859392,1.1626084 Z m -0.035394,0.2778735 -0.083143,-0.043735 -0.083143,0.043735 0.015916,-0.092725 -0.067377,-0.065684 0.093038,-0.013596 0.041577,-0.084221 0.041578,0.084221 0.093038,0.013596 -0.067377,0.065684 z"
       id="path10"
       style="stroke-width:1;fill:#5351a2;fill-opacity:1" />
    <path
       d="m 13.562334,10.706131 0.237074,0.12472 -0.04528,-0.26412 0.191793,-0.187001 -0.265047,-0.03864 -0.118537,-0.240009 -0.118536,0.240009 -0.265047,0.03864 0.191791,0.187001 -0.04528,0.26412 z m -0.04158,-0.259174 0.04158,-0.08422 0.04158,0.08422 0.09304,0.01359 -0.06738,0.06568 0.01592,0.09272 -0.08314,-0.04373 -0.08314,0.04373 0.01592,-0.09272 -0.06738,-0.06568 z"
       id="path12"
       style="stroke-width:1;fill:#5351a2;fill-opacity:1" />
    <path
       d="M 13.562334,1.9956055 13.40887,2.4680519 h -0.496556 l 0.401665,0.2920927 -0.15331,0.4722921 0.40182,-0.2919371 0.401819,0.2920927 -0.153464,-0.4724477 0.401665,-0.2920927 h -0.496556 z m 0.11204,0.7201847 0.06923,0.2131179 -0.181281,-0.1318266 -0.181438,0.1319821 0.06923,-0.2132734 -0.181283,-0.1318278 h 0.224247 l 0.06923,-0.2131192 0.06923,0.2131192 h 0.224247 z"
       id="path14"
       style="stroke-width:1;fill:#5351a2;fill-opacity:1" />
    <path
       d="m 12.332765,0.6683635 c -0.201682,0 -0.365809,0.1641279 -0.365809,0.365811 0,0.2016818 0.164127,0.3658097 0.365809,0.3658097 0.201683,0 0.365811,-0.1641279 0.365811,-0.3658097 0,-0.2016831 -0.164128,-0.365811 -0.365811,-0.365811 z m 0,0.6157115 c -0.137854,0 -0.2499,-0.1122029 -0.2499,-0.2499005 0,-0.1377014 0.112203,-0.2499018 0.2499,-0.2499018 0.137701,0 0.249902,0.112203 0.249902,0.2499018 0,0.1377001 -0.112203,0.2499005 -0.249902,0.2499005 z"
       id="path16"
       style="stroke-width:1;fill:#5351a2;fill-opacity:1" />
    <path
       d="m 13.799716,7.1489431 c -0.162891,0 -0.295337,0.1324461 -0.295337,0.2953373 0,0.1628924 0.132446,0.2953373 0.295337,0.2953373 0.162892,0 0.295338,-0.1324449 0.295338,-0.2953373 0,-0.1628912 -0.132446,-0.2953373 -0.295338,-0.2953373 z m 0,0.4747654 c -0.09891,0 -0.179428,-0.080521 -0.179428,-0.1794281 0,-0.098908 0.08052,-0.1794282 0.179428,-0.1794282 0.09891,0 0.179429,0.080521 0.179429,0.1794282 0,0.098908 -0.08052,0.1794281 -0.179429,0.1794281 z"
       id="path18"
       style="stroke-width:1;fill:#5351a2;fill-opacity:1" />
    <path
       d="m 2.0308805,2.5249248 c 0,0.2117282 0.1723192,0.3840474 0.3842017,0.3840474 0.2118825,0 0.3842017,-0.1723192 0.3842017,-0.3840474 0,-0.2118825 -0.1723192,-0.3842004 -0.3842017,-0.3842004 -0.2118825,0 -0.3842017,0.1723179 -0.3842017,0.3842004 z M 2.4150822,2.2566335 c 0.1479007,0 0.2682925,0.1203931 0.2682925,0.2682913 0,0.1479007 -0.1203931,0.2681382 -0.2682925,0.2681382 -0.1479007,0 -0.2682925,-0.1202426 -0.2682925,-0.2681382 0,-0.1478995 0.120393,-0.2682913 0.2682925,-0.2682913 z"
       id="path20"
       style="stroke-width:1;fill:#5351a2;fill-opacity:1" />
    <path
       d="m 3.4962867,13.572187 c 0.050533,0.01254 0.101843,0.02411 0.1534644,0.03462 l 0.022563,-0.113746 c -0.049918,-0.0098 -0.099372,-0.02117 -0.1480549,-0.03339 z"
       id="path22"
       style="stroke-width:1;fill:#5351a2;fill-opacity:1" />
    <path
       d="m 2.9139564,13.363241 c 0.092725,0.04405 0.1890104,0.08392 0.2860648,0.11885 l 0.039107,-0.109268 C 3.1457762,13.339453 3.0530551,13.300953 2.963881,13.258614 Z"
       id="path24"
       style="stroke-width:1;fill:#5351a2;fill-opacity:1" />
    <path
       d="m 1.2596953,10.957577 -0.1146738,0.01684 c 0.015151,0.101379 0.035394,0.203382 0.060429,0.30322 l 0.112504,-0.02813 c -0.024106,-0.09612 -0.043735,-0.194265 -0.058259,-0.291939 z"
       id="path26"
       style="stroke-width:1;fill:#5351a2;fill-opacity:1" />
    <path
       d="m 1.2953956,11.573442 c 0.034466,0.09644 0.074338,0.192565 0.1185368,0.285757 l 0.1047779,-0.04945 c -0.042506,-0.08979 -0.080822,-0.182365 -0.1140592,-0.275092 z"
       id="path28"
       style="stroke-width:1;fill:#5351a2;fill-opacity:1" />
    <path
       d="m 2.3841731,13.044876 c 0.082214,0.06119 0.1686092,0.119315 0.257165,0.172318 l 0.059651,-0.09937 c -0.084999,-0.05116 -0.1683008,-0.10695 -0.2474285,-0.165985 z"
       id="path30"
       style="stroke-width:1;fill:#5351a2;fill-opacity:1" />
    <path
       d="m 1.2270867,10.514492 c 0,-0.05023 0.00124,-0.10045 0.00376,-0.151299 l -0.1157524,-0.0058 c -0.00263,0.05255 -0.00389,0.104941 -0.00389,0.157019 0,0.05085 0.00124,0.101691 0.00376,0.152383 l 0.1157524,-0.0058 c -0.00226,-0.04868 -0.00351,-0.09768 -0.00351,-0.146665 z"
       id="path32"
       style="stroke-width:1;fill:#5351a2;fill-opacity:1" />
    <path
       d="m 1.9270257,12.628529 c 0.068619,0.07619 0.1420272,0.14991 0.2183731,0.219301 l 0.07805,-0.08578 c -0.07341,-0.06691 -0.144192,-0.138009 -0.2103373,-0.21111 z"
       id="path34"
       style="stroke-width:1;fill:#5351a2;fill-opacity:1" />
    <path
       d="m 1.5595153,12.131818 c 0.053003,0.08856 0.1108107,0.175255 0.1717008,0.257319 l 0.093189,-0.06877 C 1.7658327,12.241089 1.7101953,12.15763 1.6590405,12.072475 Z"
       id="path36"
       style="stroke-width:1;fill:#5351a2;fill-opacity:1" />
    <path
       d="m 1.2606234,10.06461 c 0.0074,-0.04977 0.016079,-0.09969 0.025962,-0.1496005 l -0.1135951,-0.02256 c -0.01041,0.05177 -0.019315,0.103398 -0.027041,0.1550105 z"
       id="path38"
       style="stroke-width:1;fill:#5351a2;fill-opacity:1" />
    <path
       d="m 13.866944,11.769253 0.115452,0.01054 c 0.0048,-0.05239 0.0078,-0.105242 0.0088,-0.15841 l -0.115903,-0.0025 c -0.0011,0.05053 -0.0039,0.100614 -0.0084,0.150374 z"
       id="path40"
       style="stroke-width:1;fill:#5351a2;fill-opacity:1" />
    <path
       d="m 13.351843,12.955548 0.0867,0.07696 c 0.07696,-0.0867 0.147437,-0.179582 0.209257,-0.276482 l -0.09768,-0.06244 c -0.05872,0.0918 -0.125335,0.179891 -0.198282,0.261955 z"
       id="path42"
       style="stroke-width:1;fill:#5351a2;fill-opacity:1" />
    <path
       d="m 12.234938,13.607114 0.02411,0.113432 c 0.112818,-0.02411 0.224711,-0.05749 0.332429,-0.09937 l -0.04188,-0.108027 c -0.102006,0.03972 -0.207865,0.0714 -0.314656,0.09397 z"
       id="path44"
       style="stroke-width:1;fill:#5351a2;fill-opacity:1" />
    <path
       d="m 12.84524,13.370658 0.05857,0.09984 c 0.09984,-0.05842 0.195656,-0.125034 0.284519,-0.19782 l -0.07356,-0.08964 c -0.08422,0.06908 -0.174792,0.132289 -0.269528,0.187618 z"
       id="path46"
       style="stroke-width:1;fill:#5351a2;fill-opacity:1" />
    <path
       d="m 13.704516,12.403819 0.106333,0.04621 c 0.04605,-0.10602 0.08392,-0.216364 0.112504,-0.3281 L 13.811,12.093179 c -0.02704,0.105869 -0.0629,0.210337 -0.106484,0.310638 z"
       id="path48"
       style="stroke-width:1;fill:#5351a2;fill-opacity:1" />
    <path
       d="m 11.757855,13.652242 -0.0025,0.115903 c 0.01545,3.1e-4 0.03075,4.63e-4 0.04606,4.63e-4 0.03787,0 0.07542,-9.28e-4 0.112817,-0.0031 l -0.0061,-0.115602 c -0.04945,0.0026 -0.09969,0.0033 -0.150219,0.0023 z"
       id="path50"
       style="stroke-width:1;fill:#5351a2;fill-opacity:1" />
    <rect
       x="13.741763"
       y="5.4956083"
       width="0.11590955"
       height="0.3090921"
       id="rect52"
       style="stroke-width:1;fill:#5351a2;fill-opacity:1" />
    <rect
       x="13.741763"
       y="4.2592416"
       width="0.11590955"
       height="0.3090921"
       id="rect54"
       style="stroke-width:1;fill:#5351a2;fill-opacity:1" />
    <rect
       x="13.741763"
       y="4.8774261"
       width="0.11590955"
       height="0.3090921"
       id="rect56"
       style="stroke-width:1;fill:#5351a2;fill-opacity:1" />
    <rect
       x="13.741763"
       y="6.1137929"
       width="0.11590955"
       height="0.3090921"
       id="rect58"
       style="stroke-width:1;fill:#5351a2;fill-opacity:1" />
  </g>
</svg>
