<svg width="96" height="96" viewBox="0 0 96 96" fill="none" xmlns="http://www.w3.org/2000/svg">
<g clip-path="url(#clip0)">
<path d="M63.2754 73.4697C62.6462 73.3635 62.0017 73.3101 61.3594 73.3101H55.2261V69.3975C58.7585 67.0398 61.0906 63.0195 61.0906 58.4631V51.4253C61.0906 49.001 60.4248 46.6316 59.165 44.5742L56.7642 46.0442C57.7529 47.6592 58.2759 49.5203 58.2759 51.4253V52.9011L57.906 52.2178C56.7803 50.137 54.6116 48.8442 52.2458 48.8442H43.6597C41.2939 48.8442 39.1252 50.137 37.9995 52.2178L37.6304 52.9011V51.4253C37.6304 45.7329 42.2607 41.1025 47.9531 41.1025C50.699 41.1025 53.2837 42.1689 55.2305 44.1047L57.2153 42.1082C54.7375 39.6443 51.4482 38.2871 47.9531 38.2871C40.7087 38.2871 34.8149 44.1809 34.8149 51.4253V58.4631C34.8149 63.0195 37.1477 67.0405 40.6802 69.3975V73.3101H34.5469C28.2268 73.3101 23.0852 78.4517 23.0852 84.7725V95.9998H25.9006V84.7725C25.9006 80.0044 29.7788 76.1255 34.5469 76.1255H40.7886C41.3789 79.5466 44.3657 82.1584 47.9531 82.1584C51.5405 82.1584 54.5273 79.5466 55.1177 76.1255H61.3594C61.8457 76.1255 62.3328 76.1658 62.8081 76.2463L63.2754 73.4697ZM52.4106 74.8855C52.4106 77.3435 50.4111 79.343 47.9531 79.343C45.4951 79.343 43.4956 77.3435 43.4956 74.8855V70.8213C44.8879 71.3252 46.3887 71.6006 47.9531 71.6006C49.5176 71.6006 51.0183 71.3252 52.4106 70.8213V74.8855ZM47.9531 68.7859C42.375 68.7859 37.8193 64.3379 37.6392 58.8037L40.4766 53.5574C41.1094 52.387 42.3296 51.6597 43.6597 51.6597H52.2458C53.5767 51.6597 54.7969 52.387 55.4297 53.5574L58.2671 58.803C58.0862 64.3379 53.5305 68.7859 47.9531 68.7859Z" fill="#5351A2"/>
<path d="M66.3252 74.4395L65.1042 76.9758C68.0823 78.4092 70.0056 81.47 70.0056 84.7725V95.9998H72.821V84.7725C72.821 80.3948 70.2715 76.3394 66.3252 74.4395Z" fill="#5351A2"/>
<path d="M61.5601 89.2437H64.3755V96.0002H61.5601V89.2437Z" fill="#5351A2"/>
<path d="M31.5308 89.2437H34.3462V96.0002H31.5308V89.2437Z" fill="#5351A2"/>
<path d="M24.9324 13.2668L21.6775 6.67285L18.4226 13.2668L11.1453 14.3245L16.4114 19.458L15.1685 26.7061L21.6775 23.2842L28.1865 26.7061L26.9436 19.458L32.2097 14.3245L24.9324 13.2668ZM24.4475 21.5601L21.6775 20.1033L18.9075 21.5601L19.4363 18.4751L17.1951 16.2903L20.2925 15.8406L21.6775 13.0339L23.0625 15.8406L26.1599 16.2903L23.9187 18.4751L24.4475 21.5601Z" fill="#5351A2"/>
<path d="M52.1462 13.2671L48.8914 6.67236L45.6372 13.2671L38.3591 14.3247L43.6252 19.4583L42.3823 26.7063L48.8914 23.2844L55.4011 26.7063L54.1575 19.4575L59.4236 14.3247L52.1462 13.2671ZM51.6621 21.5603L48.8914 20.1035L46.1213 21.5603L46.6501 18.4753L44.4089 16.2905L47.5063 15.8408L48.8914 13.0342L50.2764 15.8408L53.3738 16.2905L51.1326 18.4753L51.6621 21.5603Z" fill="#5351A2"/>
<path d="M74.2288 6.67236L70.9739 13.2671L63.6965 14.3247L68.9626 19.4575L67.7197 26.7063L74.2288 23.2844L80.7385 26.7063L79.4949 19.4575L84.761 14.3247L77.4836 13.2671L74.2288 6.67236ZM76.9988 21.5603L74.2288 20.1035L71.458 21.5603L71.9875 18.4753L69.7463 16.2905L72.8438 15.8408L74.2288 13.0342L75.6138 15.8408L78.7112 16.2905L76.47 18.4753L76.9988 21.5603Z" fill="#5351A2"/>
<path d="M90.7449 0H73.459V2.81543H90.7449C92.0383 2.81543 93.0908 3.86792 93.0908 5.16138V29.5598C93.0908 30.854 92.0383 31.9065 90.7449 31.9065H26.8389V41.8579L12.7397 31.9065H5.16138C3.86792 31.9065 2.81543 30.854 2.81543 29.5598V17.2991H0V29.5598C0 32.406 2.31519 34.7212 5.16138 34.7212H11.8469L29.6543 47.2917V34.7212H90.7449C93.5911 34.7212 95.9062 32.406 95.9062 29.5598V5.16138C95.9062 2.31519 93.5911 0 90.7449 0Z" fill="#5351A2"/>
<path d="M2.81543 5.16138C2.81543 3.86792 3.86792 2.81543 5.16138 2.81543H70.6443V0H5.16138C2.31519 0 0 2.31519 0 5.16138V14.4836H2.81543V5.16138Z" fill="#5351A2"/>
<path d="M28.7153 84.7729H31.5308C31.5308 83.1096 32.8835 81.7561 34.5469 81.7561V78.9414C31.3315 78.9414 28.7153 81.5576 28.7153 84.7729Z" fill="#5351A2"/>
<path d="M90.0879 12.6687V5.63086H83.05V8.44556H87.2725V12.6687H90.0879Z" fill="#5351A2"/>
<path d="M5.63086 21.8647V28.9033H12.6687V26.0879H8.44556V21.8647H5.63086Z" fill="#5351A2"/>
<path d="M40.9153 89.7129H43.73V92.5276H40.9153V89.7129Z" fill="#5351A2"/>
<path d="M46.5454 89.7129H49.3608V92.5276H46.5454V89.7129Z" fill="#5351A2"/>
<path d="M52.1763 89.7129H54.991V92.5276H52.1763V89.7129Z" fill="#5351A2"/>
</g>
<defs>
<clipPath id="clip0">
<rect width="96" height="96" fill="white"/>
</clipPath>
</defs>
</svg>
