<svg  viewBox="0 0 28 28" fill="none" xmlns="http://www.w3.org/2000/svg">
<g clip-path="url(#clip0)">
<path d="M14.0185 0C10.2202 0 9.74602 0.0174768 8.25466 0.0838889C6.76564 0.153796 5.75198 0.387986 4.86066 0.734028C3.94138 1.09056 3.16074 1.56942 2.38361 2.34656C1.60647 3.1237 1.12644 3.90316 0.771076 4.82361C0.425034 5.71493 0.18968 6.72859 0.120937 8.21762C0.0510298 9.70897 0.0370483 10.1832 0.0370483 13.9815C0.0370483 17.7798 0.0545252 18.254 0.120937 19.7453C0.190845 21.2332 0.425034 22.248 0.771076 23.1394C1.1276 24.0575 1.60647 24.8393 2.38361 25.6164C3.16074 26.3924 3.94021 26.8736 4.86066 27.2289C5.75314 27.5738 6.7668 27.8103 8.25466 27.8791C9.74602 27.949 10.2202 27.963 14.0185 27.963C17.8168 27.963 18.291 27.9455 19.7824 27.8791C21.2703 27.8092 22.2851 27.5738 23.1764 27.2289C24.0945 26.8724 24.8763 26.3924 25.6535 25.6164C26.4294 24.8393 26.9106 24.061 27.266 23.1394C27.6109 22.248 27.8474 21.2332 27.9161 19.7453C27.986 18.254 28 17.7798 28 13.9815C28 10.1832 27.9825 9.70897 27.9161 8.21762C27.8462 6.72975 27.6109 5.71377 27.266 4.82361C26.9095 3.90433 26.4294 3.1237 25.6535 2.34656C24.8763 1.56942 24.098 1.08939 23.1764 0.734028C22.2851 0.387986 21.2703 0.152631 19.7824 0.0838889C18.291 0.0139815 17.8168 0 14.0185 0ZM14.0185 2.51667C17.7504 2.51667 18.1955 2.53531 19.6694 2.59939C21.0326 2.66347 21.7724 2.88951 22.2641 3.08292C22.9189 3.33575 23.3826 3.63868 23.8743 4.12687C24.3625 4.61622 24.6654 5.0811 24.9183 5.7359C25.1093 6.22758 25.3377 6.96744 25.3995 8.33063C25.4659 9.80568 25.481 10.2484 25.481 13.9815C25.481 17.7145 25.4635 18.1584 25.3948 19.6323C25.3237 20.9955 25.0965 21.7354 24.9043 22.2271C24.6433 22.8819 24.3462 23.3456 23.8568 23.8373C23.3686 24.3254 22.8968 24.6284 22.249 24.8812C21.7596 25.0723 21.0081 25.3007 19.6449 25.3624C18.1605 25.4288 17.7236 25.444 13.9836 25.444C10.2424 25.444 9.80544 25.4265 8.32224 25.3577C6.95788 25.2867 6.20638 25.0595 5.71703 24.8672C5.05407 24.6062 4.59851 24.3091 4.11032 23.8198C3.6198 23.3316 3.30638 22.8597 3.06171 22.2119C2.86946 21.7226 2.64343 20.9711 2.57236 19.6079C2.51993 18.1398 2.50128 17.6866 2.50128 13.964C2.50128 10.2403 2.51993 9.78587 2.57236 8.30034C2.64343 6.93715 2.86946 6.18681 3.06171 5.69745C3.30638 5.03333 3.6198 4.57894 4.11032 4.08842C4.59851 3.60023 5.05407 3.28565 5.71703 3.04214C6.20638 2.84873 6.94157 2.62153 8.30476 2.55162C9.7903 2.49919 10.2272 2.48171 13.9661 2.48171L14.0185 2.51667ZM14.0185 6.80199C10.0513 6.80199 6.83904 10.0177 6.83904 13.9815C6.83904 17.9487 10.0548 21.161 14.0185 21.161C17.9858 21.161 21.198 17.9452 21.198 13.9815C21.198 10.0142 17.9823 6.80199 14.0185 6.80199ZM14.0185 18.642C11.4436 18.642 9.35804 16.5564 9.35804 13.9815C9.35804 11.4066 11.4436 9.32099 14.0185 9.32099C16.5935 9.32099 18.679 11.4066 18.679 13.9815C18.679 16.5564 16.5935 18.642 14.0185 18.642ZM23.1601 6.51887C23.1601 7.44514 22.4074 8.19664 21.4823 8.19664C20.556 8.19664 19.8045 7.44397 19.8045 6.51887C19.8045 5.59376 20.5572 4.84225 21.4823 4.84225C22.4063 4.84109 23.1601 5.59376 23.1601 6.51887Z" fill="#5351A2"/>
</g>
<defs>
<clipPath id="clip0">
<rect width="27.963" height="27.963" fill="white" transform="translate(0.0370483)"/>
</clipPath>
</defs>
</svg>
