<svg width="90" height="96" viewBox="0 0 90 96" fill="none" xmlns="http://www.w3.org/2000/svg">
<path d="M85.0255 23.9223H84.0524C83.4771 21.9021 82.6735 19.9637 81.652 18.1312L82.3437 17.4393C83.1351 16.6483 83.5707 15.5932 83.5707 14.4684C83.5707 13.3437 83.1351 12.2888 82.3431 11.4968L77.7345 6.89364C76.9431 6.09734 75.8868 5.65898 74.7599 5.65898C73.6333 5.65898 72.5767 6.09734 71.7892 6.8897L71.0983 7.58062C69.2644 6.55596 67.3253 5.75085 65.3064 5.17581V4.20289C65.3066 1.88545 63.4213 0 61.1037 0H54.5879C52.2704 0 50.385 1.88545 50.385 4.20289V5.17581C48.3664 5.75067 46.4262 6.55596 44.5886 7.58137L43.9008 6.89364C43.109 6.09734 42.0527 5.65898 40.926 5.65917C39.7994 5.65917 38.743 6.09772 37.9555 6.88989L33.3478 11.4978C32.5564 12.2888 32.1209 13.3438 32.1209 14.4686C32.1209 15.5934 32.5564 16.6483 33.3476 17.4393L34.0391 18.131C33.0133 19.9692 32.2094 21.9079 31.6373 23.9223H30.6607C28.3432 23.9223 26.4578 25.8078 26.4578 28.1252V34.6467C26.4578 36.9641 28.3432 38.8496 30.6607 38.8496H31.6373C32.2094 40.8638 33.0133 42.8025 34.0391 44.6409L33.3476 45.3326C32.5562 46.1236 32.1207 47.1787 32.1207 48.3035C32.1207 49.4281 32.5562 50.4831 33.3475 51.2741L37.9516 55.8783C38.743 56.6746 39.7992 57.1129 40.9258 57.1129H40.926C42.0527 57.1129 43.1092 56.6746 43.8969 55.8822L44.5884 55.1905C46.4279 56.2169 48.3681 57.0211 50.3848 57.5929V58.5692C50.3848 60.8866 52.2702 62.7721 54.5877 62.7721H61.1035C63.4209 62.7721 65.3064 60.8866 65.3064 58.5692V57.5929C67.3237 57.0209 69.2624 56.2171 71.0983 55.1913L71.7853 55.8783C72.5767 56.6746 73.6331 57.1129 74.7597 57.1129C75.8866 57.1129 76.9431 56.6744 77.7298 55.8829L82.3437 51.2741C83.1349 50.4829 83.5705 49.4279 83.5705 48.3033C83.5705 47.1785 83.1349 46.1236 82.3437 45.3326L81.6519 44.6407C82.6733 42.8082 83.4767 40.8698 84.0522 38.8496H85.0253C87.3427 38.8496 89.2282 36.9641 89.2282 34.6467V28.1252C89.2283 25.8078 87.3431 23.9223 85.0255 23.9223ZM61.5567 58.569C61.5567 58.8146 61.3493 59.022 61.1037 59.022H54.5879C54.3422 59.022 54.1349 58.8146 54.1349 58.569V56.1348V44.3145C54.1349 43.5304 53.647 42.8292 52.912 42.5565C47.8737 40.688 44.4886 35.839 44.4886 30.4905C44.4886 26.2518 46.5992 22.2784 50.1335 19.8625C50.2922 19.7541 50.4324 19.6656 50.555 19.5931C50.5483 19.8368 50.531 20.0686 50.5218 20.1895C50.5078 20.3798 50.4965 20.53 50.4965 20.679V29.5282C50.4965 33.59 53.6703 36.9821 57.7215 37.2508C57.8041 37.2562 57.887 37.2562 57.9697 37.2508C62.0181 36.9823 65.1894 33.5901 65.1894 29.5282V20.679C65.1894 20.5307 65.1783 20.3815 65.1645 20.1923C65.1555 20.0708 65.1382 19.8377 65.1316 19.5929C65.2539 19.6653 65.3934 19.7536 65.5515 19.8617C69.0867 22.2782 71.1973 26.2516 71.1973 30.4903C71.1973 35.8382 67.8141 40.6874 62.7788 42.5565C62.044 42.8293 61.5563 43.5304 61.5563 44.3143V56.1346V58.569H61.5567ZM85.4784 34.6467C85.4784 34.888 85.2668 35.0997 85.0255 35.0997H82.5966C81.7207 35.0997 80.9613 35.7062 80.768 36.5606C80.1742 39.1843 79.1458 41.6652 77.7113 43.9344C77.2429 44.6754 77.3505 45.6422 77.9704 46.262L79.6925 47.9842C79.8043 48.0959 79.821 48.232 79.821 48.3033C79.821 48.3743 79.8043 48.5106 79.6931 48.6216L75.0753 53.2344C74.9697 53.3405 74.8454 53.3628 74.7599 53.3628C74.6746 53.3628 74.5505 53.3405 74.441 53.2303L72.7188 51.5081C72.098 50.8875 71.1304 50.7806 70.3894 51.2501C68.7889 52.2643 67.0854 53.069 65.3066 53.6638V45.5615C71.1234 42.8545 74.9476 36.9553 74.9476 30.4901C74.9476 25.0121 72.2261 19.8814 67.6681 16.7658C66.9699 16.2886 64.8465 14.8369 62.9893 15.9058C61.1658 16.9558 61.3474 19.417 61.4249 20.4681C61.4316 20.5594 61.4382 20.6361 61.4397 20.679V29.5282C61.4397 31.5806 59.8711 33.3012 57.8458 33.499C55.8176 33.301 54.2466 31.5804 54.2466 29.5282L54.2464 20.6925C54.2481 20.6361 54.2549 20.5594 54.2616 20.4677C54.3398 19.4172 54.523 16.9573 52.7009 15.9067C50.8445 14.8359 48.7179 16.2883 48.0184 16.7658C43.46 19.8816 40.7387 25.0122 40.7387 30.4903C40.7387 36.9564 44.5649 42.856 50.385 45.5623V53.6639C48.6058 53.0692 46.9002 52.2641 45.295 51.2494C44.9864 51.0544 44.6392 50.9593 44.2936 50.9593C43.8093 50.9593 43.329 51.1466 42.9673 51.5085L41.2416 53.2344C41.136 53.3407 41.0117 53.363 40.9262 53.363C40.8407 53.363 40.7168 53.3407 40.6073 53.2306L35.9994 48.6226C35.8875 48.5108 35.8708 48.3745 35.8708 48.3035C35.8708 48.2322 35.8875 48.0961 35.9994 47.9842L37.7214 46.262C38.3412 45.6422 38.4488 44.6754 37.9805 43.9344C36.5386 41.6532 35.5104 39.1734 34.9245 36.5638C34.7325 35.7079 33.9724 35.0995 33.0951 35.0995H30.661C30.4197 35.0995 30.208 34.8878 30.208 34.6465V28.125C30.208 27.8794 30.4154 27.672 30.661 27.672H33.0951C33.9724 27.672 34.7323 27.0636 34.9245 26.2077C35.5104 23.5982 36.5384 21.1182 37.9805 18.8371C38.4488 18.0961 38.3412 17.1294 37.7214 16.5095L35.9992 14.7874C35.8875 14.6756 35.8708 14.5395 35.8708 14.4683C35.8708 14.397 35.8875 14.2609 35.9994 14.149L40.6112 9.53695C40.7168 9.43082 40.8409 9.40851 40.9264 9.40851C41.0119 9.40851 41.136 9.43082 41.2455 9.54088L42.9675 11.263C43.5877 11.8831 44.5544 11.9905 45.2952 11.5221C47.5735 10.0818 50.0561 9.05152 52.6733 8.46035C53.5283 8.26723 54.1352 7.50768 54.1352 6.63152V4.20289C54.1352 3.95727 54.3426 3.7499 54.5882 3.7499H61.1041C61.3497 3.7499 61.5571 3.95727 61.5571 4.20289V6.63189C61.5571 7.50825 62.164 8.2676 63.0188 8.46072C65.6385 9.05246 68.1183 10.0822 70.3898 11.5216C71.1309 11.9911 72.0984 11.8842 72.7192 11.2636L74.4451 9.53751C74.5507 9.43139 74.675 9.40907 74.7603 9.40907C74.8458 9.40907 74.9699 9.43139 75.0801 9.5422L79.6929 14.1495C79.8047 14.2613 79.8213 14.3974 79.8213 14.4686C79.8213 14.5399 79.8047 14.676 79.6927 14.7879L77.9708 16.5101C77.3509 17.1299 77.2433 18.0967 77.7116 18.8376C79.146 21.1069 80.1746 23.5877 80.7684 26.2115C80.9617 27.0659 81.721 27.6724 82.597 27.6724H85.0258C85.2715 27.6724 85.4788 27.8798 85.4788 28.1254V34.6467H85.4784Z" fill="#5351A2"/>
<path d="M68.7706 82.558C68.0384 83.2902 68.0384 84.4775 68.7706 85.2098C69.1368 85.5758 69.6166 85.759 70.0964 85.759C70.5762 85.759 71.056 85.5758 71.4222 85.2098L71.4274 85.2046C72.1596 84.4724 72.157 83.2878 71.4246 82.5556C70.6923 81.8234 69.5028 81.8262 68.7706 82.558Z" fill="#5351A2"/>
<path d="M77.4565 64.3953L62.571 72.0397C61.3092 70.7328 59.5411 69.9176 57.5854 69.9176H47.3864C46.8153 69.9176 46.6758 69.8722 46.6664 69.869C46.5837 69.8255 46.3223 69.5799 46.1125 69.3827L46.0195 69.2953C37.7682 61.5279 30.7981 62.0201 22.8717 65.1483C21.5893 65.6545 21.5645 65.6556 20.2766 65.7106L17.9704 65.7123C17.3134 63.7302 15.4437 62.2959 13.2442 62.2959H5.74517C3.00267 62.2959 0.771667 64.5295 0.771667 67.2748V86.956C0.771667 89.6983 3.00267 91.9295 5.74517 91.9295H13.2442C15.4435 91.9295 17.3131 90.4969 17.9702 88.5173H22.1889C22.5614 88.5173 22.5614 88.5173 22.9947 88.6394C23.1522 88.6838 23.3438 88.7378 23.5913 88.8044L42.996 93.9957C43.8513 94.2267 44.6358 94.4542 45.3946 94.6739C47.8808 95.3943 49.9706 95.9999 52.1487 95.9999C54.6106 95.9999 57.1847 95.2263 60.5703 92.9699C60.5866 92.9591 60.6029 92.9478 60.619 92.9364L64.3236 90.2948C65.1667 89.6935 65.3628 88.5227 64.7615 87.6796C64.1602 86.8362 62.9892 86.6403 62.1465 87.2416L58.4666 89.8656C53.5535 93.1334 51.4672 92.5293 46.4382 91.0721C45.6635 90.8477 44.8625 90.6156 43.9698 90.3744L24.5637 85.1829C24.3364 85.1218 24.1581 85.0715 24.0119 85.0303C23.3039 84.8308 23.0392 84.7678 22.1891 84.7678H18.2232V69.4637H20.2494C20.2764 69.4637 20.303 69.4631 20.33 69.462L20.4369 69.4575C22.0087 69.3903 22.4484 69.3474 24.2487 68.6366C31.2102 65.8894 36.5838 65.563 43.4518 72.0284L43.5446 72.1156C44.7183 73.2186 45.3942 73.6679 47.3865 73.6679H57.5855C58.7825 73.6679 59.8263 74.3323 60.3704 75.3113C60.3762 75.3221 60.383 75.3324 60.389 75.3433C60.632 75.7927 60.7703 76.3069 60.7703 76.8528C60.7703 78.6061 59.3418 80.0324 57.5857 80.0324H41.0567C40.0214 80.0324 39.1818 80.8718 39.1818 81.9073C39.1818 82.9429 40.0214 83.7823 41.0567 83.7823H57.5857C61.4095 83.7823 64.5202 80.6738 64.5202 76.8528C64.5202 76.3335 64.461 75.828 64.3522 75.3411L79.1696 67.7316C80.5721 67.0116 82.4898 67.0888 83.4419 68.6338C84.2841 69.9956 83.8208 71.8057 82.3649 72.8436L75.865 77.4729C75.0215 78.0736 74.8246 79.2443 75.4253 80.0879C75.7911 80.6014 76.3683 80.8754 76.9542 80.8754C77.3305 80.8754 77.7103 80.7623 78.0401 80.5276L84.5408 75.8977C87.6281 73.6967 88.5266 69.726 86.6325 66.664C84.7699 63.6412 80.8254 62.6658 77.4565 64.3953ZM14.4731 86.956C14.4731 87.6194 13.9104 88.1796 13.2442 88.1796H5.74517C5.08181 88.1796 4.52157 87.6192 4.52157 86.956V67.275C4.52157 66.5974 5.07056 66.046 5.74517 66.046H13.2442C13.9104 66.046 14.4731 66.6087 14.4731 67.275V86.956Z" fill="#5351A2"/>
</svg>
