<?xml version="1.0" encoding="UTF-8" standalone="no"?>
<!-- Created with Inkscape (http://www.inkscape.org/) -->

<svg
   width="16.0px"
   height="16.0px"
   viewBox="0 0 16.0 16.0"
   version="1.1"
   id="SVGRoot"
   sodipodi:docname="Interior_design.svg"
   inkscape:version="1.1 (c68e22c387, 2021-05-23)"
   xmlns:inkscape="http://www.inkscape.org/namespaces/inkscape"
   xmlns:sodipodi="http://sodipodi.sourceforge.net/DTD/sodipodi-0.dtd"
   xmlns="http://www.w3.org/2000/svg"
   xmlns:svg="http://www.w3.org/2000/svg">
  <sodipodi:namedview
     id="namedview1038"
     pagecolor="#ffffff"
     bordercolor="#666666"
     borderopacity="1.0"
     inkscape:pageshadow="2"
     inkscape:pageopacity="0.0"
     inkscape:pagecheckerboard="0"
     inkscape:document-units="px"
     showgrid="true"
     inkscape:zoom="8.2524843"
     inkscape:cx="6.6040719"
     inkscape:cy="15.146954"
     inkscape:window-width="1920"
     inkscape:window-height="1020"
     inkscape:window-x="0"
     inkscape:window-y="0"
     inkscape:window-maximized="1"
     inkscape:current-layer="layer1">
    <inkscape:grid
       type="xygrid"
       id="grid1101" />
  </sodipodi:namedview>
  <defs
     id="defs1033" />
  <g
     inkscape:label="Layer 1"
     inkscape:groupmode="layer"
     id="layer1">
    <path
       d="m 11.094313,7.3485657 h -0.488576 c -0.04495,0 -0.08143,-0.03648 -0.08143,-0.081429 l -0.0034,-3.2539143 c 0,-0.00684 7.97e-4,-0.013517 0.0026,-0.020031 l 0.247711,-0.9813856 c 0.009,-0.035991 0.04153,-0.061397 0.07882,-0.061397 0,0 0,0 1.63e-4,0 0.03729,0 0.06987,0.025408 0.07882,0.061724 l 0.244288,0.9781284 c 0.0016,0.00635 0.0024,0.013028 0.0024,0.019706 v 3.2571713 c 0,0.044949 -0.03648,0.081429 -0.08143,0.081429 z M 10.687004,7.1857075 h 0.32588 v -3.165645 l -0.163347,-0.6537143 -0.16579,0.6569712 z"
       id="path2"
       style="stroke-width:0.999997;fill:#5351a2;fill-opacity:1" />
    <path
       d="M 10.117162,12.071464 H 8.3257171 c -0.032897,0 -0.062701,-0.01987 -0.075241,-0.05032 -0.01254,-0.03045 -0.00554,-0.06547 0.017589,-0.08876 L 10.05951,10.140941 c 0.02345,-0.02329 0.0583,-0.03045 0.08876,-0.01759 0.03045,0.01254 0.05032,0.04235 0.05032,0.07524 v 1.791444 c 0,0.04495 -0.03648,0.08143 -0.08143,0.08143 z M 8.5222874,11.908606 h 1.5134446 v -1.513445 z"
       id="path4"
       style="stroke-width:0.999997;fill:#5351a2;fill-opacity:1" />
    <path
       d="M 11.094313,13.048616 H 5.71998 c -0.033223,0 -0.063026,-0.0202 -0.075404,-0.05081 -0.012377,-0.03062 -0.00505,-0.06596 0.018729,-0.08908 l 5.374334,-5.2179944 c 0.02361,-0.022639 0.05814,-0.029477 0.08843,-0.016609 0.03013,0.012863 0.04967,0.042505 0.04967,0.075078 v 5.2179884 c 0,0.04495 -0.03648,0.08143 -0.08143,0.08143 z M 5.9207846,12.885757 H 11.012884 V 7.9418596 Z"
       id="path6"
       style="stroke-width:0.999997;fill:#5351a2;fill-opacity:1" />
    <path
       d="m 10.117162,13.048616 c -0.04495,0 -0.08143,-0.03648 -0.08143,-0.08143 v -0.325717 c 0,-0.04495 0.03648,-0.08143 0.08143,-0.08143 0.04495,0 0.08143,0.03648 0.08143,0.08143 v 0.325717 c 0,0.04495 -0.03648,0.08143 -0.08143,0.08143 z"
       id="path8"
       style="stroke-width:0.999997;fill:#5351a2;fill-opacity:1" />
    <path
       d="m 8.8142931,13.048616 c -0.044949,0 -0.08143,-0.03648 -0.08143,-0.08143 v -0.325717 c 0,-0.04495 0.03648,-0.08143 0.08143,-0.08143 0.044949,0 0.081429,0.03648 0.081429,0.08143 v 0.325717 c 0,0.04495 -0.03648,0.08143 -0.081429,0.08143 z"
       id="path10"
       style="stroke-width:0.999997;fill:#5351a2;fill-opacity:1" />
    <path
       d="m 7.1857072,13.048616 c -0.044949,0 -0.081429,-0.03648 -0.081429,-0.08143 v -0.325717 c 0,-0.04495 0.03648,-0.08143 0.081429,-0.08143 0.044949,0 0.081429,0.03648 0.081429,0.08143 v 0.325717 c 0,0.04495 -0.03648,0.08143 -0.081429,0.08143 z"
       id="path12"
       style="stroke-width:0.999997;fill:#5351a2;fill-opacity:1" />
    <path
       d="m 11.094313,12.071464 h -0.325717 c -0.04495,0 -0.08143,-0.03648 -0.08143,-0.08143 0,-0.04495 0.03648,-0.08143 0.08143,-0.08143 h 0.325717 c 0.04495,0 0.08143,0.03648 0.08143,0.08143 0,0.04495 -0.03648,0.08143 -0.08143,0.08143 z"
       id="path14"
       style="stroke-width:0.999997;fill:#5351a2;fill-opacity:1" />
    <path
       d="m 11.094313,10.605737 h -0.325717 c -0.04495,0 -0.08143,-0.03648 -0.08143,-0.08143 0,-0.04495 0.03648,-0.08143 0.08143,-0.08143 h 0.325717 c 0.04495,0 0.08143,0.03648 0.08143,0.08143 0,0.04495 -0.03648,0.08143 -0.08143,0.08143 z"
       id="path16"
       style="stroke-width:0.999997;fill:#5351a2;fill-opacity:1" />
    <path
       d="m 11.094313,8.8142931 h -0.325717 c -0.04495,0 -0.08143,-0.03648 -0.08143,-0.081429 0,-0.044949 0.03648,-0.08143 0.08143,-0.08143 h 0.325717 c 0.04495,0 0.08143,0.03648 0.08143,0.08143 0,0.044949 -0.03648,0.081429 -0.08143,0.081429 z"
       id="path18"
       style="stroke-width:0.999997;fill:#5351a2;fill-opacity:1" />
    <path
       d="m 9.4657275,13.048616 c -0.04495,0 -0.08143,-0.03648 -0.08143,-0.08143 V 12.47861 c 0,-0.04495 0.03648,-0.08143 0.081429,-0.08143 0.044949,0 0.08143,0.03648 0.08143,0.08143 v 0.488576 c 0,0.04495 -0.03648,0.08143 -0.081429,0.08143 z"
       id="path20"
       style="stroke-width:0.999997;fill:#5351a2;fill-opacity:1" />
    <path
       d="m 8.1628586,13.048616 c -0.044949,0 -0.081429,-0.03648 -0.081429,-0.08143 V 12.47861 c 0,-0.04495 0.03648,-0.08143 0.081429,-0.08143 0.044949,0 0.081429,0.03648 0.081429,0.08143 v 0.488576 c 0,0.04495 -0.03648,0.08143 -0.081429,0.08143 z"
       id="path22"
       style="stroke-width:0.999997;fill:#5351a2;fill-opacity:1" />
    <path
       d="m 11.094313,11.42003 h -0.488576 c -0.04495,0 -0.08143,-0.03648 -0.08143,-0.08143 0,-0.04495 0.03648,-0.08143 0.08143,-0.08143 h 0.488576 c 0.04495,0 0.08143,0.03648 0.08143,0.08143 0,0.04495 -0.03648,0.08143 -0.08143,0.08143 z"
       id="path24"
       style="stroke-width:0.999997;fill:#5351a2;fill-opacity:1" />
    <path
       d="m 11.094313,9.7914444 h -0.488576 c -0.04495,0 -0.08143,-0.03648 -0.08143,-0.081429 0,-0.044949 0.03648,-0.081429 0.08143,-0.081429 h 0.488576 c 0.04495,0 0.08143,0.03648 0.08143,0.081429 0,0.044949 -0.03648,0.081429 -0.08143,0.081429 z"
       id="path26"
       style="stroke-width:0.999997;fill:#5351a2;fill-opacity:1" />
    <path
       d="m 9.0123287,8.9771518 h -2.759964 c -0.044949,0 -0.081429,-0.03648 -0.081429,-0.08143 0,-0.044949 0.03648,-0.081429 0.081429,-0.081429 h 2.759964 c 0.044949,0 0.08143,0.03648 0.08143,0.081429 0,0.044949 -0.03648,0.08143 -0.08143,0.08143 z"
       id="path28"
       style="stroke-width:0.999997;fill:#5351a2;fill-opacity:1" />
    <path
       d="M 8.6514344,8 H 8.4885757 c -0.044949,0 -0.081429,-0.03648 -0.081429,-0.081429 0,-0.044949 0.03648,-0.081429 0.081429,-0.081429 h 0.1628587 c 0.044949,0 0.081429,0.03648 0.081429,0.081429 C 8.7328634,7.96352 8.6963834,8 8.6514344,8 Z"
       id="path30"
       style="stroke-width:0.999997;fill:#5351a2;fill-opacity:1" />
    <path
       d="M 8,8 H 7.5114243 c -0.044949,0 -0.081429,-0.03648 -0.081429,-0.081429 0,-0.044949 0.03648,-0.081429 0.081429,-0.081429 H 8 c 0.044949,0 0.081429,0.03648 0.081429,0.081429 C 8.081429,7.96352 8.044949,8 8,8 Z"
       id="path32"
       style="stroke-width:0.999997;fill:#5351a2;fill-opacity:1" />
    <path
       d="M 7.0228486,8 H 6.5342729 c -0.044949,0 -0.081429,-0.03648 -0.081429,-0.081429 0,-0.044949 0.03648,-0.081429 0.081429,-0.081429 h 0.4885757 c 0.044949,0 0.081429,0.03648 0.081429,0.081429 C 7.1042776,7.96352 7.0677976,8 7.0228486,8 Z"
       id="path34"
       style="stroke-width:0.999997;fill:#5351a2;fill-opacity:1" />
    <path
       d="m 6.2085557,8.9771518 c -0.2244191,0 -0.4071464,-0.1827273 -0.4071464,-0.4071465 V 7.7557122 c 0,-0.2244192 0.1827273,-0.4071465 0.4071464,-0.4071465 0.2244191,0 0.4071465,0.1827273 0.4071465,0.4071465 v 0.8142931 c 0,0.2244192 -0.1827274,0.4071465 -0.4071465,0.4071465 z m 0,-1.4657274 c -0.134684,0 -0.2442878,0.1096038 -0.2442878,0.2442878 v 0.8142931 c 0,0.134684 0.1096038,0.2442878 0.2442878,0.2442878 0.134684,0 0.2442878,-0.1096038 0.2442878,-0.2442878 V 7.7557122 c 0,-0.134684 -0.1096038,-0.2442878 -0.2442878,-0.2442878 z"
       id="path36"
       style="stroke-width:0.999997;fill:#5351a2;fill-opacity:1" />
    <path
       d="m 8.9771513,8.9771518 c -0.2245818,0 -0.407146,-0.1827273 -0.407146,-0.4071465 V 7.7557122 c 0,-0.2244192 0.1825642,-0.4071465 0.407146,-0.4071465 0.2245823,0 0.4071465,0.1827273 0.4071465,0.4071465 v 0.8142931 c 0,0.2244192 -0.1825642,0.4071465 -0.4071465,0.4071465 z m 0,-1.4657274 c -0.1346841,0 -0.2442878,0.1096038 -0.2442878,0.2442878 v 0.8142931 c 0,0.134684 0.1096037,0.2442878 0.2442878,0.2442878 0.134684,0 0.2442878,-0.1096038 0.2442878,-0.2442878 V 7.7557122 c 0,-0.134684 -0.1096038,-0.2442878 -0.2442878,-0.2442878 z"
       id="path38"
       style="stroke-width:0.999997;fill:#5351a2;fill-opacity:1" />
    <path
       d="m 8.8957222,7.5114244 c -0.029802,0 -0.058466,-0.01645 -0.072798,-0.044949 C 8.5849879,6.9909278 8.115141,6.6955023 7.596925,6.6955023 c -0.5185417,0 -0.9882258,0.2954255 -1.2259993,0.7709727 -0.020194,0.040391 -0.069215,0.056512 -0.1092781,0.03648 -0.040226,-0.020195 -0.056512,-0.069052 -0.03648,-0.1092781 0.2656223,-0.5310815 0.7911669,-0.861033 1.3717577,-0.861033 0.580428,0 1.1061357,0.3299515 1.3717575,0.861033 0.020031,0.040226 0.00372,0.089084 -0.03648,0.1092781 -0.011726,0.0057 -0.024265,0.00847 -0.036481,0.00847 z"
       id="path40"
       style="stroke-width:0.999997;fill:#5351a2;fill-opacity:1" />
    <path
       d="M 5.3942629,7.0228488 H 4.4171114 c -0.028175,0 -0.054395,-0.014659 -0.069215,-0.038595 -0.01482,-0.023941 -0.016286,-0.054069 -0.00358,-0.079149 L 4.670031,6.2536703 c 0.013843,-0.027687 0.042018,-0.045114 0.072798,-0.045114 h 0.3257169 c 0.03078,0 0.058955,0.017427 0.072798,0.044949 l 0.3257167,0.6514341 c 0.012703,0.025243 0.011237,0.055209 -0.00358,0.07915 -0.01482,0.023941 -0.041041,0.03876 -0.069215,0.03876 z M 4.548864,6.85999 H 5.2625102 L 5.0182224,6.3714144 H 4.7931519 Z"
       id="path42"
       style="stroke-width:0.999997;fill:#5351a2;fill-opacity:1" />
    <path
       d="m 4.9056871,7.8371418 c -0.044949,0 -0.081429,-0.03648 -0.081429,-0.08143 V 6.9414197 c 0,-0.044949 0.03648,-0.08143 0.081429,-0.08143 0.044949,0 0.081429,0.03648 0.081429,0.08143 v 0.8142925 c 0,0.044949 -0.03648,0.08143 -0.081429,0.08143 z"
       id="path44"
       style="stroke-width:0.999997;fill:#5351a2;fill-opacity:1" />
    <path
       d="M 5.5571214,8.9771518 H 4.2542528 c -0.044949,0 -0.081429,-0.03648 -0.081429,-0.08143 v -1.14001 c 0,-0.044949 0.03648,-0.081429 0.081429,-0.081429 h 1.3028686 c 0.044949,0 0.081429,0.03648 0.081429,0.081429 v 1.14001 c 0,0.044949 -0.03648,0.08143 -0.081429,0.08143 z M 4.3356821,8.8142931 h 1.14001 V 7.8371418 h -1.14001 z"
       id="path46"
       style="stroke-width:0.999997;fill:#5351a2;fill-opacity:1" />
    <path
       d="M 6.7269345,12.071464 H 3.43996 c -0.044949,0 -0.081429,-0.03648 -0.081429,-0.08143 V 3.0328135 c 0,-0.044949 0.03648,-0.081429 0.081429,-0.081429 h 5.2114744 c 0.044949,0 0.081429,0.03648 0.081429,0.081429 v 1.3842984 h 1.3842986 c 0.04495,0 0.08143,0.03648 0.08143,0.081429 l 7.97e-4,4.1988193 c 0,0.04495 -0.03648,0.08143 -0.08143,0.08143 -0.04495,0 -0.08143,-0.03648 -0.08143,-0.08143 L 10.035732,4.57997 H 8.6514344 c -0.044949,0 -0.081429,-0.03648 -0.081429,-0.081429 V 3.1142432 H 3.5213893 v 8.7943628 h 3.2055452 c 0.044949,0 0.081429,0.03648 0.081429,0.08143 0,0.04495 -0.03648,0.08143 -0.081429,0.08143 z"
       id="path48"
       style="stroke-width:0.999997;fill:#5351a2;fill-opacity:1" />
    <path
       d="m 11.094313,4.0913944 h -0.488576 c -0.04495,0 -0.08143,-0.03648 -0.08143,-0.081429 0,-0.044949 0.03648,-0.08143 0.08143,-0.08143 h 0.488576 c 0.04495,0 0.08143,0.03648 0.08143,0.08143 0,0.044949 -0.03648,0.081429 -0.08143,0.081429 z"
       id="path50"
       style="stroke-width:0.999997;fill:#5351a2;fill-opacity:1" />
    <path
       d="m 11.094313,6.5342731 h -0.488576 c -0.04495,0 -0.08143,-0.03648 -0.08143,-0.08143 0,-0.044949 0.03648,-0.081429 0.08143,-0.081429 h 0.488576 c 0.04495,0 0.08143,0.03648 0.08143,0.081429 0,0.044949 -0.03648,0.08143 -0.08143,0.08143 z"
       id="path52"
       style="stroke-width:0.999997;fill:#5351a2;fill-opacity:1" />
    <path
       d="m 10.117162,4.57997 c -0.02085,0 -0.04169,-0.00798 -0.05765,-0.023776 L 8.5937822,3.0904657 c -0.031757,-0.031757 -0.031757,-0.083384 0,-0.1151412 0.031757,-0.031757 0.083384,-0.031757 0.1151412,0 l 1.4657276,1.4657274 c 0.03176,0.031757 0.03176,0.083383 0,0.1151407 -0.0158,0.015796 -0.03665,0.023776 -0.05749,0.023776 z"
       id="path54"
       style="stroke-width:0.999997;fill:#5351a2;fill-opacity:1" />
  </g>
</svg>
