<svg viewBox="0 0 29 28" fill="none" xmlns="http://www.w3.org/2000/svg">
<g clip-path="url(#clip0)">
<path d="M28.4267 5.32485C27.3798 5.78578 26.2708 6.09003 25.1352 6.22782C26.3308 5.50923 27.2259 4.38231 27.6554 3.05519C26.5474 3.70183 25.3193 4.17254 24.012 4.43469C23.1496 3.51241 22.0067 2.90072 20.7609 2.69458C19.5152 2.48845 18.2362 2.69942 17.1226 3.29472C16.009 3.89003 15.1232 4.83637 14.6026 5.98678C14.082 7.13719 13.9558 8.4273 14.2436 9.65678C9.47829 9.43191 5.25705 7.14244 2.4293 3.68435C1.91524 4.55798 1.64711 5.55441 1.65332 6.56803C1.65332 8.56039 2.66698 10.3116 4.20261 11.3404C3.29249 11.3114 2.40247 11.0653 1.60672 10.6227V10.6926C1.6062 12.0166 2.06376 13.3 2.90176 14.3251C3.73976 15.3502 4.9066 16.0539 6.2043 16.3166C5.36343 16.5419 4.48272 16.5758 3.62704 16.4157C3.99536 17.5552 4.71022 18.5513 5.67185 19.265C6.63349 19.9787 7.79393 20.3744 8.99127 20.3969C6.96341 21.9884 4.4595 22.8522 1.88169 22.8495C1.42729 22.8495 0.974057 22.8227 0.518494 22.7714C3.14667 24.4542 6.20256 25.3475 9.32333 25.3452C19.8712 25.3452 25.6327 16.6114 25.6327 9.05091C25.6327 8.80624 25.6327 8.56156 25.6153 8.31688C26.7408 7.50696 27.7116 6.50141 28.4815 5.34815L28.4267 5.32485Z" fill="#5351A2"/>
</g>
<defs>
<clipPath id="clip0">
<rect width="27.963" height="27.963" fill="white" transform="translate(0.518494)"/>
</clipPath>
</defs>
</svg>
